<?xml version="1.0" standalone="no"?>
<!DOCTYPE svg PUBLIC "-//W3C//DTD SVG 20010904//EN"
 "http://www.w3.org/TR/2001/REC-SVG-20010904/DTD/svg10.dtd">
<svg version="1.0" xmlns="http://www.w3.org/2000/svg"
 width="640.000000pt" height="400.000000pt" viewBox="0 0 640.000000 400.000000"
 preserveAspectRatio="xMidYMid meet">

<g transform="translate(0.000000,400.000000) scale(0.100000,-0.100000)"
fill="#000000" stroke="none">
<path d="M4584 3606 c-35 -11 -125 -78 -273 -203 -33 -28 -34 -28 -48 5 -16
35 -81 102 -99 102 -8 0 -23 -15 -34 -32 -25 -41 -20 -105 16 -181 14 -31 20
-55 14 -62 -4 -5 -11 -26 -15 -46 -5 -29 -2 -43 18 -73 21 -30 24 -42 16 -66
-5 -17 -13 -43 -18 -58 -11 -36 6 -77 47 -115 l30 -28 6 -152 c6 -125 0 -330
-18 -614 -2 -24 0 -43 4 -43 4 0 10 -30 14 -67 15 -158 105 -488 144 -530 14
-15 42 -58 62 -95 20 -37 55 -87 77 -110 82 -89 148 -203 168 -293 2 -11 10
-40 16 -65 12 -47 19 -232 11 -287 -3 -22 -9 -30 -18 -26 -16 6 -53 -68 -54
-105 0 -23 2 -23 58 -17 31 4 59 7 62 7 65 1 65 1 61 -48 l-3 -47 28 8 c16 4
63 10 104 14 l75 6 1 215 c1 364 16 563 47 657 12 37 13 37 87 49 41 6 106 21
144 33 37 11 69 21 71 21 1 0 5 -19 7 -42 6 -48 96 -239 132 -278 13 -14 38
-52 56 -85 18 -33 47 -80 64 -105 33 -48 34 -54 28 -217 -2 -59 -3 -63 -26
-63 -31 0 -56 -34 -56 -76 l0 -31 82 -6 c94 -8 92 -9 108 73 39 194 65 302 83
349 l22 53 33 -38 c25 -29 32 -46 29 -66 -2 -18 1 -28 9 -28 19 0 20 -5 38
-109 l16 -94 -25 -43 c-29 -50 -39 -121 -16 -116 8 2 52 6 98 9 46 3 86 10 89
15 19 31 7 141 -35 321 -12 49 -19 92 -16 97 4 6 -22 161 -55 326 -9 41 -7 65
10 135 11 46 23 122 27 169 7 98 -11 300 -34 379 -14 49 -14 56 2 91 22 48 8
96 -41 147 -31 31 -38 34 -73 28 -28 -5 -47 -1 -72 13 -30 17 -45 18 -134 10
-225 -19 -427 -21 -556 -5 -112 14 -138 21 -221 60 -100 47 -123 69 -187 173
-17 28 -40 87 -51 130 -11 44 -31 120 -44 169 -39 148 -47 186 -50 250 -2 33
-7 72 -10 87 -6 21 -4 27 12 32 38 13 55 93 27 130 -18 24 -19 78 -1 127 14
39 72 109 91 109 33 0 67 -79 45 -105 -6 -7 -10 -24 -8 -37 2 -19 10 -24 40
-26 34 -3 39 0 55 32 13 29 14 38 3 51 -7 8 -19 15 -26 15 -10 0 -14 13 -14
44 0 24 -6 59 -14 78 -20 46 -85 104 -133 117 -47 13 -57 13 -109 -3z m123
-21 c72 -30 109 -87 110 -170 1 -27 -1 -40 -3 -28 -7 28 -49 73 -70 73 -17 0
-69 -49 -95 -89 -14 -23 -15 -23 -39 40 -15 36 -36 71 -52 82 -24 18 -30 19
-59 7 l-32 -14 6 -97 6 -97 -31 -11 c-39 -14 -85 -14 -93 -1 -4 6 12 10 42 10
46 0 83 13 72 24 -3 3 -20 1 -38 -4 -39 -11 -123 -2 -133 14 -17 25 -5 46 58
97 36 30 92 75 124 102 95 77 153 93 227 62z m-527 -107 c0 -6 7 -19 16 -29 8
-9 22 -43 30 -76 16 -58 41 -109 51 -100 2 3 -1 16 -8 28 -16 31 -39 120 -29
114 5 -3 18 -35 30 -70 29 -88 61 -108 145 -90 22 4 49 9 60 9 19 1 20 7 16
108 -3 95 -1 108 14 114 26 10 47 -6 73 -56 27 -55 29 -142 5 -242 -14 -59
-15 -75 -4 -101 30 -75 42 -179 21 -192 -18 -11 -12 -46 7 -43 14 2 19 -7 24
-42 4 -25 12 -63 18 -85 7 -22 26 -92 42 -155 31 -117 54 -166 118 -253 30
-41 52 -57 136 -97 94 -45 109 -49 246 -65 130 -15 168 -16 340 -4 304 20 297
20 355 -14 64 -37 84 -68 130 -192 31 -86 38 -120 47 -243 12 -161 1 -303 -32
-407 -13 -43 -16 -64 -8 -73 13 -16 47 -204 53 -294 3 -55 1 -68 -10 -68 -8 0
-19 -8 -25 -17 -8 -14 -12 -15 -22 -6 -9 9 -17 9 -32 1 -17 -8 -19 -8 -14 6 4
10 -16 38 -61 85 -206 212 -263 291 -286 392 -25 113 -22 153 20 216 39 59 80
150 71 159 -9 9 -27 -6 -27 -23 0 -28 -61 -129 -98 -165 -38 -35 -166 -118
-183 -118 -5 0 -17 -4 -27 -9 -33 -19 -148 -49 -208 -56 l-61 -7 5 100 c5 99
-9 195 -30 208 -16 10 -16 1 -1 -71 16 -75 13 -205 -4 -227 -17 -22 -44 -177
-49 -283 -7 -139 -12 -165 -29 -159 -8 3 -22 -1 -30 -10 -21 -21 -37 -20 -33
1 2 10 -5 19 -16 21 -14 3 -17 0 -12 -13 3 -9 6 -23 6 -31 0 -17 41 -19 58 -2
8 8 15 8 27 -2 12 -10 15 -40 15 -173 0 -151 -1 -161 -22 -178 -26 -23 -37
-24 -44 -4 -4 9 -14 13 -28 9 -21 -5 -21 -4 -21 186 0 104 -2 190 -5 190 -4 0
-11 -5 -17 -11 -14 -14 -44 41 -63 111 -7 25 -38 99 -70 165 -53 108 -66 128
-136 193 -42 40 -79 70 -82 67 -4 -3 28 -39 70 -80 63 -63 84 -92 128 -182 43
-89 79 -185 80 -214 0 -3 -15 -10 -33 -16 -41 -12 -52 0 -95 115 -36 93 -71
148 -132 207 -23 22 -60 74 -82 115 -23 41 -51 85 -63 98 -26 26 -54 105 -90
252 -14 58 -30 122 -35 142 -10 36 -33 254 -30 293 0 15 7 464 10 674 0 11 4
11 18 -2 29 -26 35 -20 13 12 l-20 28 33 27 c52 41 60 70 42 156 -14 70 -37
110 -61 110 -7 0 -25 -12 -40 -26 -16 -14 -25 -19 -22 -10 4 9 -1 20 -11 26
-13 8 -10 9 13 3 27 -6 29 -5 16 10 -7 10 -22 17 -32 17 -11 0 -19 5 -19 10 0
13 16 13 41 -1 37 -19 43 -3 6 19 -71 41 -134 236 -92 282 20 22 35 26 35 8z
m686 -150 c-3 -13 -6 -26 -6 -29 0 -4 -12 -9 -26 -12 -35 -6 -44 20 -15 45 33
26 55 24 47 -4z m-694 -159 c-4 -18 -11 -29 -14 -24 -3 6 -1 26 5 45 12 44 21
24 9 -21z m478 -21 c0 -17 -8 -33 -22 -42 -21 -15 -23 -15 -29 3 -4 10 0 39 9
64 16 44 17 45 29 24 7 -12 12 -34 13 -49z m-348 -45 c9 -10 19 -35 22 -56 4
-21 9 -44 12 -50 2 -7 -10 -18 -27 -26 -40 -18 -64 -5 -64 35 0 23 4 29 22 29
13 0 23 3 23 8 1 30 -2 36 -21 42 -16 5 -18 10 -8 21 15 18 23 18 41 -3z m-85
-103 c0 -25 -4 -30 -23 -30 -21 0 -22 2 -13 30 6 17 17 30 23 30 7 0 13 -13
13 -30z m37 -46 c25 -10 19 -22 -9 -16 -14 2 -25 8 -25 13 0 10 12 11 34 3z
m86 -8 c0 -8 -12 -28 -26 -45 -29 -34 -73 -42 -94 -16 -11 13 -6 15 34 15 42
0 49 3 64 30 19 34 22 36 22 16z m-33 -12 c-3 -3 -12 -4 -19 -1 -8 3 -5 6 6 6
11 1 17 -2 13 -5z m-47 -14 c21 -7 19 -8 -17 -9 -24 -1 -43 4 -43 9 0 12 24
12 60 0z m1749 -812 c31 -32 48 -84 37 -113 -9 -25 -22 -17 -34 23 -6 21 -25
53 -41 71 -50 56 -15 73 38 19z m-399 -813 c11 -48 74 -155 92 -155 4 0 8 -5
8 -11 0 -7 34 -47 75 -90 84 -88 90 -107 52 -173 -23 -41 -48 -52 -78 -33 -13
8 -24 8 -43 -1 -23 -10 -27 -8 -54 26 -16 20 -46 68 -67 105 -21 38 -48 81
-61 96 -37 44 -116 212 -122 257 l-4 41 88 56 89 57 7 -63 c3 -34 11 -84 18
-112z m-809 -439 c5 -6 14 -3 22 8 12 17 15 11 20 -50 11 -109 8 -222 -5 -243
-11 -18 -14 -18 -41 -4 -21 10 -32 12 -40 4 -6 -6 -13 -11 -16 -11 -4 0 -6 72
-6 159 l0 159 25 9 c19 7 26 5 28 -7 2 -8 8 -19 13 -24z m1293 -33 c10 -35 46
-207 46 -223 0 -8 -16 -23 -36 -33 -19 -9 -33 -13 -29 -7 3 5 -1 10 -9 10 -26
0 -43 41 -60 138 -9 51 -18 97 -21 102 -8 13 18 18 37 6 14 -8 22 -7 35 7 22
22 30 22 37 0z m-1204 -158 c0 -146 -4 -185 -19 -185 -3 0 -6 78 -7 174 0 141
2 173 13 169 10 -4 13 -40 13 -158z m865 138 c10 -13 16 -15 27 -6 7 7 19 8
26 4 9 -5 7 -29 -9 -102 -12 -52 -25 -110 -29 -129 -5 -27 -9 -31 -15 -17 -4
9 -15 17 -24 17 -34 0 -41 22 -41 121 0 90 2 99 22 113 28 20 28 20 43 -1z
m-950 -274 c18 -9 30 -22 30 -34 0 -17 -8 -20 -55 -22 -30 -2 -67 -7 -82 -12
-14 -5 -29 -7 -31 -4 -7 7 23 93 33 93 5 0 10 -6 12 -12 4 -10 11 -9 29 3 13
9 26 13 29 9 3 -4 19 -13 35 -21z m1338 9 c6 -8 7 -26 4 -39 -5 -19 -14 -25
-39 -27 -18 -1 -57 -6 -86 -11 -52 -8 -53 -7 -48 13 3 11 6 28 6 36 1 35 15
42 54 26 30 -12 41 -13 57 -3 10 6 19 16 19 20 0 13 22 3 33 -15z m-443 -1 c0
-5 9 -7 19 -4 21 5 31 -10 31 -45 0 -19 -4 -20 -52 -14 -29 3 -63 6 -76 6 -20
0 -22 4 -16 23 3 12 10 27 15 33 10 12 79 14 79 1z m-745 -74 c13 -17 14 -17
32 0 24 21 33 13 33 -28 l0 -32 -67 -6 c-38 -4 -79 -9 -92 -13 -22 -7 -23 -5
-16 27 9 42 22 59 40 53 7 -3 16 -1 20 5 10 17 36 13 50 -6z"/>
<path d="M4464 3175 c-10 -8 -29 -15 -41 -15 -21 0 -40 -16 -30 -26 3 -3 28 4
55 16 28 12 56 19 61 15 6 -3 11 -2 11 3 0 6 -7 13 -16 16 -20 8 -17 8 -40 -9z"/>
<path d="M4438 3124 c-16 -8 -28 -21 -28 -29 0 -18 41 -29 75 -21 26 7 50 40
40 56 -9 15 -56 11 -87 -6z m65 -19 c-7 -19 -19 -19 -26 -1 -3 8 -1 17 6 19
18 6 27 -2 20 -18z"/>
<path d="M2181 3465 c-37 -41 -46 -45 -87 -45 -31 0 -54 7 -71 20 -31 24 -51
26 -59 5 -9 -24 -34 -18 -34 8 0 31 -18 47 -55 47 -55 0 -94 -84 -95 -204 0
-47 -5 -64 -25 -88 -31 -36 -26 -62 17 -99 26 -24 28 -30 18 -49 -7 -13 -14
-57 -16 -99 -4 -77 -18 -151 -47 -251 -9 -30 -27 -100 -42 -154 -25 -97 -57
-162 -118 -240 -46 -58 -192 -124 -311 -139 -115 -15 -414 -15 -571 0 -112 10
-122 10 -154 -9 -26 -14 -44 -18 -73 -13 -34 6 -41 3 -72 -28 -49 -51 -63 -99
-41 -147 16 -35 16 -42 2 -91 -23 -80 -41 -280 -33 -378 3 -48 15 -124 26
-170 l20 -83 -31 -167 c-17 -91 -32 -186 -34 -211 -2 -25 -10 -79 -19 -120
-41 -186 -49 -253 -32 -295 2 -7 38 -14 88 -18 46 -3 91 -7 99 -9 23 -5 13 66
-16 116 l-25 43 16 94 c18 104 19 109 38 109 8 0 11 10 9 28 -3 20 4 37 29 66
l33 38 22 -53 c17 -44 45 -162 89 -384 8 -42 16 -45 102 -38 l82 6 0 37 c0 41
-24 70 -57 70 -19 0 -21 8 -26 92 -8 130 -6 136 45 214 25 38 56 88 69 110 13
23 40 66 59 95 52 78 110 210 110 248 0 27 3 32 18 26 46 -18 160 -45 213 -51
40 -4 63 -12 68 -23 35 -64 54 -303 55 -681 l1 -215 70 -6 c39 -4 85 -10 104
-14 l33 -8 -3 47 c-4 45 -4 46 26 47 37 2 29 2 98 -6 57 -7 57 -7 57 19 0 37
-38 109 -54 103 -30 -12 -26 297 5 355 5 10 7 18 5 18 -3 0 6 30 20 68 30 79
73 147 140 221 27 29 66 84 86 122 21 37 47 78 58 89 25 25 33 45 70 175 42
151 69 274 76 353 4 40 10 72 14 72 4 0 6 19 4 43 -16 245 -24 489 -18 612 l6
150 33 35 c50 52 56 75 35 140 -11 35 -14 61 -9 72 5 9 9 35 9 57 0 23 4 41 9
41 18 0 71 52 71 69 0 10 -11 24 -25 31 -18 9 -24 19 -19 29 4 9 11 40 16 68
9 45 7 58 -9 85 -11 18 -26 34 -34 36 -9 2 -35 -18 -58 -43z m-283 13 c13 -13
16 -80 6 -141 -7 -38 -25 -54 -81 -71 -22 -7 -23 -5 -23 59 0 112 54 197 98
153z m369 -63 c-11 -94 -14 -96 -90 -86 -16 2 5 86 30 124 25 36 27 37 45 20
15 -14 19 -27 15 -58z m-267 21 c0 -3 -4 -8 -10 -11 -5 -3 -10 -1 -10 4 0 6 5
11 10 11 6 0 10 -2 10 -4z m26 -32 c-3 -9 -6 -18 -6 -20 0 -2 -9 -4 -20 -4
-11 0 -20 -4 -20 -10 0 -5 -9 -10 -19 -10 -17 0 -18 3 -8 24 9 19 15 22 25 13
11 -8 16 -7 23 6 12 21 33 22 25 1z m32 -33 c-26 -42 -128 -80 -128 -47 0 9 7
12 19 9 10 -2 24 1 32 9 8 7 21 14 29 16 8 2 19 9 25 17 5 8 16 15 23 15 9 0
10 -4 0 -19z m94 -8 c-3 -16 -7 -22 -10 -15 -4 13 4 42 11 42 2 0 2 -12 -1
-27z m-97 -93 c3 -5 25 -11 48 -11 105 -3 97 -15 -14 -22 -79 -4 -133 -13
-172 -27 -64 -24 -107 -55 -107 -76 0 -10 -8 -14 -22 -12 -17 2 -24 11 -26 32
-8 65 99 120 245 125 23 0 45 -3 48 -9z m205 -44 c0 -9 -30 -14 -35 -6 -4 6 3
10 14 10 12 0 21 -2 21 -4z m-70 -17 c0 -6 -9 -9 -20 -6 -28 7 -35 -10 -9 -23
20 -11 20 -13 3 -31 -11 -12 -25 -17 -38 -13 -33 8 -56 -25 -72 -106 -18 -85
-10 -113 42 -159 32 -29 32 -30 13 -47 -10 -9 -19 -21 -19 -26 0 -15 29 -8 38
9 9 14 10 14 16 -5 4 -12 4 -26 1 -32 -10 -16 -6 -550 4 -592 5 -23 5 -53 -1
-75 -5 -21 -9 -60 -8 -88 0 -27 -6 -84 -14 -125 -53 -260 -95 -397 -138 -448
-16 -18 -42 -60 -59 -93 -16 -34 -56 -89 -88 -123 -69 -74 -103 -130 -134
-219 -13 -37 -32 -76 -41 -86 -17 -19 -21 -19 -47 -5 -16 8 -29 16 -29 17 0
22 42 132 81 211 40 82 65 116 126 177 41 42 74 82 72 88 -2 6 -41 -25 -86
-70 -70 -70 -88 -95 -136 -193 -30 -61 -58 -127 -62 -146 -4 -19 -18 -59 -32
-88 l-26 -53 -22 21 c-27 25 -45 26 -45 0 0 -24 -22 -26 -40 -5 -7 9 -19 14
-26 11 -16 -6 -24 26 -24 109 -1 96 -16 194 -46 298 -22 75 -25 102 -21 175 3
48 9 104 15 125 7 27 7 37 -1 34 -23 -7 -38 -100 -34 -206 l4 -103 -46 7 c-25
3 -55 8 -66 9 -29 5 -136 35 -165 48 -63 26 -189 105 -212 132 -27 32 -79 123
-87 153 -8 31 -31 43 -31 16 0 -22 42 -103 81 -157 34 -47 37 -88 14 -198 -20
-94 -54 -143 -223 -325 -83 -89 -131 -147 -126 -155 5 -8 2 -9 -10 -5 -10 4
-26 2 -37 -3 -15 -8 -21 -7 -25 5 -3 8 -12 15 -20 15 -10 0 -12 16 -11 62 4
89 38 280 52 296 10 11 9 26 -6 75 -32 105 -42 211 -36 358 7 156 15 200 59
319 39 108 56 132 121 169 59 33 31 33 357 12 102 -7 210 -10 240 -6 190 20
239 28 275 45 176 81 171 78 211 137 65 98 83 139 116 261 17 64 37 140 45
167 8 28 16 59 18 70 1 11 3 23 4 27 0 4 8 5 16 2 17 -7 22 31 5 41 -12 8 -13
88 0 135 28 111 51 138 135 161 100 28 255 39 255 18z m-13 -94 c0 -11 -4 -12
-14 -4 -7 6 -13 13 -13 15 0 2 6 4 13 4 8 0 14 -7 14 -15z m-45 -28 c-12 -6
-22 -16 -22 -24 0 -7 0 -16 0 -20 0 -5 10 -8 23 -8 17 0 23 -7 25 -27 2 -20
-1 -28 -12 -28 -18 0 -46 -38 -46 -62 0 -14 4 -16 24 -8 13 5 33 6 45 3 17 -4
19 -9 10 -24 -14 -28 -52 -23 -88 10 -26 24 -30 35 -27 67 11 118 32 162 70
142 l21 -11 -23 -10z m88 -97 c1 -8 2 -24 1 -35 -1 -18 -3 -17 -18 5 -15 22
-19 38 -14 67 2 12 29 -21 31 -37z m-30 -40 c0 -5 0 -13 0 -17 0 -7 -61 -5
-69 2 -1 2 0 8 4 14 8 14 65 14 65 1z m-1730 -818 c0 -5 -13 -23 -29 -41 -16
-17 -34 -52 -41 -77 -10 -36 -15 -42 -26 -33 -42 35 19 159 78 159 10 0 18 -4
18 -8z m464 -732 l68 -43 -4 -41 c-6 -47 -88 -218 -123 -256 -12 -14 -40 -56
-60 -95 -21 -38 -51 -87 -67 -107 -27 -34 -31 -36 -54 -26 -17 8 -31 9 -42 2
-9 -5 -27 -8 -39 -6 -29 4 -68 80 -60 114 4 12 42 61 84 108 43 47 95 110 115
140 40 59 68 157 68 237 0 45 0 45 23 31 12 -8 53 -34 91 -58z m741 -558 c-4
-15 -7 -83 -6 -151 2 -110 0 -123 -14 -117 -9 3 -29 -1 -44 -9 -27 -13 -29
-13 -40 11 -12 28 -14 132 -4 238 5 59 8 66 19 51 15 -20 34 -12 34 16 0 19 1
19 31 4 26 -14 30 -20 24 -43z m-170 -163 c0 -173 -1 -180 -19 -175 -11 3 -25
-2 -32 -11 -11 -16 -14 -16 -38 0 l-26 17 0 169 c0 148 2 170 17 175 9 4 21 2
27 -4 17 -17 56 -12 56 7 0 9 3 13 8 9 4 -4 7 -89 7 -187z m-1151 146 c10 -10
24 -13 41 -9 14 3 25 3 25 -1 0 -26 -34 -203 -42 -218 -14 -27 -52 -38 -82
-24 -31 14 -31 17 -7 134 30 143 33 149 65 118z m1192 -169 c-1 -138 -4 -172
-13 -164 -10 8 -13 54 -13 168 0 117 3 160 13 163 6 3 12 6 13 6 0 1 0 -77 0
-173z m-848 148 c20 -14 22 -23 22 -112 -1 -98 -11 -133 -38 -124 -7 2 -19 -4
-26 -13 -12 -16 -14 -14 -19 21 -4 21 -15 77 -26 124 -10 47 -17 89 -14 93 3
5 16 6 29 3 17 -5 26 -2 30 9 8 19 14 19 42 -1z m-343 -284 c27 23 55 20 65
-6 19 -48 16 -51 -67 -46 -44 2 -81 9 -85 15 -13 20 -9 49 8 68 15 17 17 16
41 -12 19 -22 28 -27 38 -19z m1342 8 c3 6 8 12 13 12 10 0 34 -69 27 -76 -2
-3 -25 0 -51 7 -25 6 -55 9 -66 6 -12 -3 -27 2 -36 11 -15 14 -15 17 2 29 10
7 26 13 35 13 10 0 21 5 24 11 5 7 14 4 27 -8 15 -13 22 -15 25 -5z m-901 -14
c4 -14 5 -26 3 -28 -2 -2 -32 -6 -66 -8 -55 -4 -64 -2 -69 15 -10 31 13 42 88
45 32 1 39 -3 44 -24z m631 -49 c14 -14 17 -14 33 0 15 14 21 14 52 1 21 -9
38 -24 42 -38 10 -40 7 -51 -11 -43 -28 11 -45 13 -100 14 l-53 1 0 33 c0 48
11 57 37 32z"/>
<path d="M1942 3176 c-50 -17 -27 -27 24 -9 24 8 44 17 44 19 0 7 -35 3 -68
-10z"/>
<path d="M1932 3127 c-30 -32 -28 -65 3 -79 22 -10 30 -8 53 9 30 22 40 57 22
79 -18 21 -54 17 -78 -9z m31 -18 c-4 -12 0 -25 8 -29 11 -7 10 -10 -5 -16
-11 -4 -24 -1 -34 9 -14 15 -14 18 3 37 23 26 35 26 28 -1z"/>
</g>
</svg>
